<?xml version="1.0" encoding="utf-8"?>
<!-- Generator: Adobe Illustrator 25.0.1, SVG Export Plug-In . SVG Version: 6.00 Build 0)  -->
<svg version="1.1" id="Layer_1" xmlns="http://www.w3.org/2000/svg" xmlns:xlink="http://www.w3.org/1999/xlink" x="0px" y="0px"
	 viewBox="0 0 36 26.8" style="enable-background:new 0 0 36 26.8;" xml:space="preserve">
<style type="text/css">
	.st0{fill:#FFFFFF;}
</style>
<path class="st0" d="M12.2,26.3L0.5,14.6c-0.7-0.7-0.7-1.8,0-2.5c0,0,0,0,0,0l2.5-2.6c0.7-0.7,1.8-0.7,2.5,0c0,0,0,0,0,0l7.9,7.9
	L30.4,0.5c0.7-0.7,1.8-0.7,2.5,0c0,0,0,0,0,0l2.5,2.6c0.7,0.7,0.7,1.8,0,2.5c0,0,0,0,0,0L14.8,26.3C14.1,27,12.9,27,12.2,26.3
	C12.2,26.3,12.2,26.3,12.2,26.3z"/>
</svg>
