<svg xmlns="http://www.w3.org/2000/svg" width="39.303" height="39.303" viewBox="0 0 39.303 39.303"><defs><style>.a{fill:#0870b8;}</style></defs><path class="a" d="M0,31.112V34.39C0,37.1,6.6,39.3,14.739,39.3s14.739-2.2,14.739-4.913V31.112c-3.17,2.234-8.966,3.278-14.739,3.278S3.17,33.346,0,31.112ZM24.564,9.826c8.137,0,14.739-2.2,14.739-4.913S32.7,0,24.564,0,9.826,2.2,9.826,4.913,16.427,9.826,24.564,9.826ZM0,23.06v3.961c0,2.71,6.6,4.913,14.739,4.913s14.739-2.2,14.739-4.913V23.06c-3.17,2.61-8.974,3.961-14.739,3.961S3.17,25.67,0,23.06Zm31.933.844c4.4-.852,7.369-2.433,7.369-4.253V16.374a18.851,18.851,0,0,1-7.369,2.648ZM14.739,12.282C6.6,12.282,0,15.03,0,18.423s6.6,6.141,14.739,6.141,14.739-2.748,14.739-6.141S22.875,12.282,14.739,12.282ZM31.573,16.6c4.606-.829,7.73-2.456,7.73-4.322V9c-2.725,1.927-7.408,2.963-12.336,3.209A8.6,8.6,0,0,1,31.573,16.6Z"/></svg>