<svg xmlns="http://www.w3.org/2000/svg" width="49.11" height="61.939" viewBox="0 0 49.11 61.939"><defs><style>.a{fill:#0870b8;}</style></defs><g transform="translate(-928.012 -2396.45)"><path class="a" d="M52.987,30.635l-3.121-1.8a14.113,14.113,0,0,0,0-5.143l3.121-1.8a.885.885,0,0,0,.4-1.026,18.247,18.247,0,0,0-4.008-6.931.882.882,0,0,0-1.084-.169l-3.121,1.8a13.827,13.827,0,0,0-4.454-2.572V9.4a.878.878,0,0,0-.689-.857,18.418,18.418,0,0,0-8,0,.878.878,0,0,0-.689.857V13a14.263,14.263,0,0,0-4.454,2.572l-3.114-1.8a.87.87,0,0,0-1.084.169,18.137,18.137,0,0,0-4.008,6.931.876.876,0,0,0,.4,1.026l3.121,1.8a14.112,14.112,0,0,0,0,5.143l-3.121,1.8a.885.885,0,0,0-.4,1.026A18.247,18.247,0,0,0,22.692,38.6a.882.882,0,0,0,1.084.169l3.121-1.8a13.827,13.827,0,0,0,4.454,2.572v3.6a.878.878,0,0,0,.689.857,18.418,18.418,0,0,0,8,0,.878.878,0,0,0,.689-.857v-3.6a14.263,14.263,0,0,0,4.454-2.572l3.121,1.8A.87.87,0,0,0,49.39,38.6,18.137,18.137,0,0,0,53.4,31.668.9.9,0,0,0,52.987,30.635ZM36.034,32.123a5.861,5.861,0,1,1,5.861-5.861A5.869,5.869,0,0,1,36.034,32.123Z" transform="translate(922.485 2388.351)"/><path class="a" d="M41.7,23.23l-2.1-1.21a9.475,9.475,0,0,0,0-3.453l2.1-1.21a.594.594,0,0,0,.271-.689,12.251,12.251,0,0,0-2.691-4.653.592.592,0,0,0-.728-.113l-2.1,1.21a9.284,9.284,0,0,0-2.991-1.727V8.97a.589.589,0,0,0-.462-.576,12.366,12.366,0,0,0-5.372,0,.589.589,0,0,0-.462.576v2.42a9.577,9.577,0,0,0-2.991,1.727l-2.091-1.21a.584.584,0,0,0-.728.113,12.178,12.178,0,0,0-2.691,4.653.588.588,0,0,0,.271.689l2.1,1.21a9.475,9.475,0,0,0,0,3.453l-2.1,1.21a.594.594,0,0,0-.271.689,12.251,12.251,0,0,0,2.691,4.653.592.592,0,0,0,.728.113l2.1-1.21a9.284,9.284,0,0,0,2.991,1.727v2.42a.589.589,0,0,0,.462.576,12.366,12.366,0,0,0,5.372,0,.589.589,0,0,0,.462-.576v-2.42a9.577,9.577,0,0,0,2.991-1.727l2.1,1.21a.584.584,0,0,0,.728-.113,12.178,12.178,0,0,0,2.691-4.653A.607.607,0,0,0,41.7,23.23Zm-11.383,1a3.935,3.935,0,1,1,3.935-3.935A3.941,3.941,0,0,1,30.32,24.229Z" transform="translate(909.368 2419.215)"/><path class="a" d="M41.7,23.23l-2.1-1.21a9.475,9.475,0,0,0,0-3.453l2.1-1.21a.594.594,0,0,0,.271-.689,12.251,12.251,0,0,0-2.691-4.653.592.592,0,0,0-.728-.113l-2.1,1.21a9.284,9.284,0,0,0-2.991-1.727V8.97a.589.589,0,0,0-.462-.576,12.366,12.366,0,0,0-5.372,0,.589.589,0,0,0-.462.576v2.42a9.577,9.577,0,0,0-2.991,1.727l-2.091-1.21a.584.584,0,0,0-.728.113,12.178,12.178,0,0,0-2.691,4.653.588.588,0,0,0,.271.689l2.1,1.21a9.475,9.475,0,0,0,0,3.453l-2.1,1.21a.594.594,0,0,0-.271.689,12.251,12.251,0,0,0,2.691,4.653.592.592,0,0,0,.728.113l2.1-1.21a9.284,9.284,0,0,0,2.991,1.727v2.42a.589.589,0,0,0,.462.576,12.366,12.366,0,0,0,5.372,0,.589.589,0,0,0,.462-.576v-2.42a9.577,9.577,0,0,0,2.991-1.727l2.1,1.21a.584.584,0,0,0,.728-.113,12.178,12.178,0,0,0,2.691-4.653A.607.607,0,0,0,41.7,23.23Zm-11.383,1a3.935,3.935,0,1,1,3.935-3.935A3.941,3.941,0,0,1,30.32,24.229Z" transform="translate(935.121 2425.892)"/></g></svg>