<svg xmlns="http://www.w3.org/2000/svg" width="38.268" height="38.268" viewBox="0 0 38.268 38.268"><defs><style>.a{fill:#0870b8;}</style></defs><path class="a" d="M24.411,13.856a11.355,11.355,0,0,1,.027,16.039l-.027.028-5.023,5.023A11.361,11.361,0,0,1,3.322,18.879L6.1,16.105a1.2,1.2,0,0,1,2.04.793,13.772,13.772,0,0,0,.724,3.94,1.2,1.2,0,0,1-.283,1.242l-.978.978a5.381,5.381,0,1,0,7.562,7.659l5.023-5.022a5.38,5.38,0,0,0,0-7.611,5.6,5.6,0,0,0-.773-.64,1.2,1.2,0,0,1-.519-.942,2.977,2.977,0,0,1,.874-2.228L21.339,12.7a1.2,1.2,0,0,1,1.538-.129A11.4,11.4,0,0,1,24.411,13.856ZM34.945,3.322a11.373,11.373,0,0,0-16.066,0L13.856,8.344l-.027.028A11.363,11.363,0,0,0,15.389,25.7a1.2,1.2,0,0,0,1.538-.129L18.5,23.993a2.977,2.977,0,0,0,.874-2.228,1.2,1.2,0,0,0-.519-.942,5.6,5.6,0,0,1-.773-.64,5.38,5.38,0,0,1,0-7.611L23.106,7.55a5.381,5.381,0,1,1,7.562,7.659l-.978.978a1.2,1.2,0,0,0-.283,1.242,13.772,13.772,0,0,1,.724,3.94,1.2,1.2,0,0,0,2.04.793l2.773-2.773a11.373,11.373,0,0,0,0-16.066Z" transform="translate(0 0)"/></svg>