<svg xmlns="http://www.w3.org/2000/svg" width="38.702" height="41.279" viewBox="0 0 38.702 41.279"><defs><style>.a{fill:#0870b8;}</style></defs><path class="a" d="M52.324,6.772,36.843.321a3.882,3.882,0,0,0-2.975,0L18.387,6.772A3.866,3.866,0,0,0,16,10.344c0,16.005,9.232,27.068,17.86,30.664a3.882,3.882,0,0,0,2.975,0C43.745,38.129,54.7,28.187,54.7,10.344A3.871,3.871,0,0,0,52.324,6.772ZM35.359,36.008l-.008-30.72L49.534,11.2c-.266,12.207-6.62,21.053-14.175,24.81Z" transform="translate(-16 -0.025)"/></svg>