<svg xmlns="http://www.w3.org/2000/svg" width="58.348" height="60.199" viewBox="0 0 58.348 60.199"><defs><style>.a{fill:#0870b8;}</style></defs><path class="a" d="M14.108,11.759H16.46V2.354H14.108a4.7,4.7,0,1,0,0,9.405ZM0,30.57a4.7,4.7,0,0,0,4.7,4.7H7.054V25.867H4.7A4.7,4.7,0,0,0,0,30.57Zm24.8-9.405a15.028,15.028,0,0,0-7.7,2.351c-1.822,1.2-3.271,2.351-7.7,2.351v9.405l4.227,1.173a30.029,30.029,0,0,0,5.9,1.106A25.561,25.561,0,0,0,26.7,37.1c8.045-1.728,10.918-5.555,10.918-8.878,0-4.7-6.186-7.054-12.825-7.054ZM36.11.531a25.534,25.534,0,0,0-7.17-.456,30.081,30.081,0,0,0-5.9,1.105L18.811,2.354v9.405c4.424,0,5.874,1.148,7.7,2.351a15.028,15.028,0,0,0,7.7,2.351c6.64,0,12.825-2.351,12.825-7.054,0-3.323-2.873-7.15-10.918-8.877Z" transform="matrix(0.602, -0.799, 0.799, 0.602, -0.002, 37.556)"/></svg>